<svg xmlns="http://www.w3.org/2000/svg" width="120.168" height="37.297" viewBox="0 0 120.168 37.297">
  <g id="レイヤー_2" data-name="レイヤー 2" transform="translate(0.015 -0.007)">
    <g id="logo" transform="translate(-0.015 0.007)">
      <path id="パス_4" data-name="パス 4" d="M45.453,45.334l.568.042v2.205c-.152,0-.421-.034-.762-.042a.779.779,0,0,0-.947.791v.875h1.776v1.911H44.313V59.47H41.623V51.116H40.1V49.206h1.486v-.652a3.451,3.451,0,0,1,.56-2.289q.589-.934,2.841-.934A2.844,2.844,0,0,1,45.453,45.334Z" transform="translate(-23.217 -26.251)"/>
      <path id="パス_5" data-name="パス 5" d="M59.956,59.66H57.25V45.65h2.706Z" transform="translate(-33.15 -26.441)"/>
      <path id="パス_6" data-name="パス 6" d="M71.237,58.062a4.208,4.208,0,0,0,1.082-.24.816.816,0,0,0,.585-.77.913.913,0,0,0-.45-.88,2.854,2.854,0,0,0-1.313-.24,1.73,1.73,0,0,0-1.38.446,1.97,1.97,0,0,0-.383.951H66.763a3.947,3.947,0,0,1,.745-2.214,4.434,4.434,0,0,1,3.7-1.368,6.616,6.616,0,0,1,3.039.673,2.567,2.567,0,0,1,1.326,2.525v5.968a1.553,1.553,0,0,0,.164.724.93.93,0,0,0,.421.311v.421H73.215a2.769,2.769,0,0,1-.173-.589,5.827,5.827,0,0,1-.063-.648,5.682,5.682,0,0,1-1.3,1.035,3.922,3.922,0,0,1-1.991.505,3.43,3.43,0,0,1-2.336-.8,2.858,2.858,0,0,1-.922-2.277,2.946,2.946,0,0,1,1.5-2.765,6.519,6.519,0,0,1,2.39-.665Zm1.654,1.263a2.879,2.879,0,0,1-.522.261,4.183,4.183,0,0,1-.728.185l-.619.114a4.145,4.145,0,0,0-1.263.37,1.263,1.263,0,0,0-.64,1.153,1.2,1.2,0,0,0,.391,1,1.49,1.49,0,0,0,.951.307,2.815,2.815,0,0,0,1.675-.526,2.167,2.167,0,0,0,.774-1.873Z" transform="translate(-38.463 -31.13)"/>
      <path id="パス_7" data-name="パス 7" d="M100.587,55.157a5.532,5.532,0,0,1,1.263,3.935,6.215,6.215,0,0,1-1.237,4.171,4.023,4.023,0,0,1-3.19,1.435,3.337,3.337,0,0,1-2.066-.619,3.964,3.964,0,0,1-.88-1v5.387H91.8V54.029h2.609v1.549a4.373,4.373,0,0,1,.934-1.065,3.464,3.464,0,0,1,2.163-.694A4.091,4.091,0,0,1,100.587,55.157Zm-2.079,1.949a1.919,1.919,0,0,0-1.789-.926,2.037,2.037,0,0,0-2.045,1.4,5.236,5.236,0,0,0-.29,1.885,2.946,2.946,0,0,0,.972,2.525,2.239,2.239,0,0,0,1.364.421,1.978,1.978,0,0,0,1.742-.875,4.554,4.554,0,0,0,.046-4.444Z" transform="translate(-53.159 -31.171)"/>
      <path id="パス_8" data-name="パス 8" d="M121.718,54.32h2.748l1.578,7.462,1.616-7.462h2.82l-3,10.361h-2.786l-1.629-7.55-1.646,7.546h-2.811L115.7,54.32h2.908l1.616,7.441Z" transform="translate(-67.001 -31.462)"/>
      <path id="パス_9" data-name="パス 9" d="M159.346,62.957a5.7,5.7,0,0,1-7.963,0,6.422,6.422,0,0,1,0-7.782,5.639,5.639,0,0,1,7.963,0,6.422,6.422,0,0,1,0,7.782Zm-2.151-1.5a4.794,4.794,0,0,0,0-4.785,2.411,2.411,0,0,0-3.653,0,4.818,4.818,0,0,0,0,4.8,2.395,2.395,0,0,0,3.653,0Z" transform="translate(-86.907 -31.005)"/>
      <path id="パス_10" data-name="パス 10" d="M183.7,53.74h.231v2.778a4.12,4.12,0,0,0-.455-.038h-.324a2.254,2.254,0,0,0-2.2,1.065,4.209,4.209,0,0,0-.311,1.843v4.953H177.92V53.979H180.5v1.805a5.634,5.634,0,0,1,1.094-1.414,2.946,2.946,0,0,1,1.974-.635Z" transform="translate(-103.035 -31.122)"/>
      <path id="パス_11" data-name="パス 11" d="M195,45.76h2.66v7.575l3.417-3.906h3.367l-3.716,3.859,3.859,6.452h-3.3l-2.525-4.427-1.124,1.166v3.262H195Z" transform="translate(-112.927 -26.505)"/>
      <path id="パス_12" data-name="パス 12" d="M220.143,60.961a1.8,1.8,0,0,0,.375,1.027,2.519,2.519,0,0,0,1.873.543,2.811,2.811,0,0,0,1.263-.24.762.762,0,0,0,.476-.711.77.77,0,0,0-.383-.694,16.287,16.287,0,0,0-2.832-.816,5.846,5.846,0,0,1-2.487-1.094,2.361,2.361,0,0,1-.724-1.864,3.232,3.232,0,0,1,1.128-2.466,4.549,4.549,0,0,1,3.177-1.031,5.846,5.846,0,0,1,3.165.774,3.313,3.313,0,0,1,1.406,2.677h-2.7a1.612,1.612,0,0,0-.295-.842,1.856,1.856,0,0,0-1.528-.551,2.226,2.226,0,0,0-1.263.274.8.8,0,0,0-.375.648.7.7,0,0,0,.4.673,17,17,0,0,0,2.828.749,5.218,5.218,0,0,1,2.42,1.17,2.6,2.6,0,0,1,.8,1.949,3.14,3.14,0,0,1-1.149,2.525,5.39,5.39,0,0,1-3.544.976,5.3,5.3,0,0,1-3.611-1.044,3.367,3.367,0,0,1-1.166-2.63Z" transform="translate(-125.899 -31.05)"/>
      <path id="パス_13" data-name="パス 13" d="M120.137,19.616a.442.442,0,0,0-.4-.5h0a11.83,11.83,0,0,1-2.765-.728c-.913-.341-1.818-.732-2.719-1.141-1.805-.821-3.607-1.683-5.412-2.525q-5.429-2.569-10.967-4.962c-3.7-1.6-7.441-3.076-11.153-4.545C84.861,4.482,83,3.745,81.073,3.043c-.96-.354-1.932-.7-2.946-1.014a24.347,24.347,0,0,0-3.283-.8,11.468,11.468,0,0,0-1.911-.16,8.679,8.679,0,0,0-1.031.114,9.772,9.772,0,0,0-1.031.219,10.808,10.808,0,0,0-1.911.707l-.286.152A13.906,13.906,0,0,0,67.412,3c-.375.253-.648.421-.955.648-.568.391-1.1.783-1.62,1.166-.8.589-1.6,1.17-2.386,1.73a21.527,21.527,0,0,1-4.676,2.622,7.083,7.083,0,0,1-2.231.518,3.674,3.674,0,0,1-.934-.076,2.832,2.832,0,0,1-.421-.135,3.152,3.152,0,0,1-.4-.2A2.8,2.8,0,0,1,53.41,9a3.725,3.725,0,0,1-.379-.358,7.315,7.315,0,0,1-.758-.972c-.135-.194-.265-.4-.4-.6-.265-.421-.539-.842-.842-1.263-.143-.219-.295-.421-.45-.661s-.316-.442-.488-.661a14.1,14.1,0,0,0-1.7-1.894c-.215-.185-.421-.366-.648-.539s-.446-.345-.673-.5l-.177-.126L46.677,1.3a4.556,4.556,0,0,0-.421-.248,6.048,6.048,0,0,0-.947-.37c-.164-.046-.328-.084-.488-.114a6.313,6.313,0,0,0-.96-.1,8.354,8.354,0,0,0-1.78.152L41.66.7c-.265.059-.526.126-.779.194-.505.139-.985.282-1.418.391-.215.055-.421.1-.606.13h-.518a5.774,5.774,0,0,1-.623-.072c-.421-.076-.892-.189-1.347-.316S35.457.749,35,.606,34.08.278,33.66.1L33.584.071a.917.917,0,0,0-1.107.354.959.959,0,0,0-.135.337.888.888,0,0,0,0,.349.9.9,0,0,0,.4.577h0c.366.332.736.686,1.09,1.048s.7.732,1.018,1.107A7.508,7.508,0,0,1,36.29,6.069a1.178,1.178,0,0,1,.072.375h0c0,.227.029.463.034.707V8.623c0,.274-.029.556-.042.842v.219h0l-.076-.029c-.619-.261-1.263-.585-1.9-.909l-.387-.2c-.135-.067-.265-.143-.4-.215C32.957,8,32.33,7.643,31.7,7.281L30.579,6.6l-.286-.173-.328-.194c-.215-.126-.421-.253-.665-.375a13.737,13.737,0,0,0-9.381-1.507c-.265.042-.526.105-.783.173s-.518.126-.766.206-.488.139-.77.253-.539.219-.8.337a11.532,11.532,0,0,0-2.1,1.321c-.206.164-.421.328-.593.5s-.375.332-.556.5c-.539.509-1.031,1.018-1.515,1.523L11.06,10.2c-.93.993-1.848,1.974-2.8,2.917q-.955.96-1.936,1.894Q3.358,17.81.164,20.369a.467.467,0,0,0-.173.257.509.509,0,0,0,0,.16.421.421,0,0,0,.059.156.455.455,0,0,0,.455.227.442.442,0,0,0,.173-.059q3.579-2.045,7-4.423,1.149-.787,2.256-1.616t2.214-1.683c.732-.572,1.46-1.115,2.18-1.654.539-.421,1.073-.8,1.6-1.149.349-.231.7-.45,1.035-.64.173-.1.341-.185.505-.269a7.4,7.4,0,0,1,.976-.421c.274-.08.593-.16.93-.227a11.856,11.856,0,0,1,1.237-.185,9.92,9.92,0,0,1,1.111-.055,8.631,8.631,0,0,1,1.094.067A13.076,13.076,0,0,1,26.03,9.7q.53.215,1.073.467c.181.084.362.168.543.265l.589.3q.644.328,1.288.631c.842.421,1.721.8,2.605,1.162a29.1,29.1,0,0,0,2.761,1c.248.076.5.143.758.21s.543.126.842.177a5.118,5.118,0,0,0,.8.08h.354a3.749,3.749,0,0,0,.455-.059,2.79,2.79,0,0,0,.631-.215,2.256,2.256,0,0,0,1.208-1.439,2.1,2.1,0,0,0,.055-.253v-.105a.841.841,0,0,0,0-.105c0-.556-.025-1.094-.051-1.629s-.076-1.136-.135-1.717-.13-1.119-.231-1.683c-.051-.286-.114-.572-.177-.871a4.432,4.432,0,0,0-.421-1.115,5.816,5.816,0,0,0-.337-.551l-.067-.093c-.109-.156-.223-.307-.341-.446l.324.034a4.831,4.831,0,0,0,.5,0l.455-.042c.421-.051.821-.13,1.2-.2l.741-.122c.236-.042.463-.08.686-.109A6.839,6.839,0,0,1,43.39,3.2a3.207,3.207,0,0,1,1.035.21,2.946,2.946,0,0,1,.421.219,2.049,2.049,0,0,1,.2.135l.215.177q.257.215.492.442c.16.152.311.3.463.459a10.433,10.433,0,0,1,.842,1.006,12.764,12.764,0,0,1,.72,1.119c.463.787.9,1.683,1.418,2.6a11.511,11.511,0,0,0,.96,1.477,7.457,7.457,0,0,0,1.414,1.406,6.923,6.923,0,0,0,2.87,1.263,7.71,7.71,0,0,0,1.006.122,9.371,9.371,0,0,0,.972,0,7.488,7.488,0,0,0,.934-.08c.3-.038.606-.093.9-.156s.581-.13.842-.206a21.313,21.313,0,0,0,3.161-1.178c.993-.463,1.94-.976,2.862-1.507s1.755-1.048,2.609-1.566c.421-.261.842-.518,1.263-.758s.812-.471,1.2-.673a6.881,6.881,0,0,1,2.016-.762,6.178,6.178,0,0,1,.9-.055h0l.509-.021a5.134,5.134,0,0,1,.564,0,6.056,6.056,0,0,1,.606.046c.623.067,1.3.181,1.978.32.909.181,1.848.421,2.794.652,1.89.484,3.788,1.023,5.719,1.566s3.842,1.09,5.749,1.646,3.788,1.128,5.7,1.725c3.788,1.191,7.554,2.47,11.313,3.809l2.828,1.048c.943.332,1.89.665,2.845.989s1.919.627,2.908.888a15.071,15.071,0,0,0,2.289.421c.261.029.526.042.791.046a.463.463,0,0,0,.421-.24.421.421,0,0,0,.046-.16Z" transform="translate(0.015 -0.007)"/>
    </g>
  </g>
</svg>
